<svg width="234" height="146" viewBox="0 0 234 146" fill="none" xmlns="http://www.w3.org/2000/svg">
<path d="M233 81.5C233 116.294 181.065 144.5 117 144.5C52.935 144.5 1 116.294 1 81.5C1 46.7061 52.935 18.5 117 18.5C181.065 18.5 233 46.7061 233 81.5Z" fill="#171717"/>
<path d="M46 30.5C46 13.9315 59.4315 0.5 76 0.5C92.5685 0.5 106 13.9315 106 30.5V70.5C106 87.0685 92.5685 100.5 76 100.5C59.4315 100.5 46 87.0685 46 70.5V30.5Z" fill="#FFFFE3"/>
<path d="M67 54.5C67 46.2157 73.7157 39.5 82 39.5C90.2843 39.5 97 46.2157 97 54.5V74.5C97 82.7843 90.2843 89.5 82 89.5C73.7157 89.5 67 82.7843 67 74.5V54.5Z" fill="#171717"/>
<path d="M46 30.5C46 13.9315 59.4315 0.5 76 0.5C92.5685 0.5 106 13.9315 106 30.5V53.5H46V30.5Z" fill="#171717"/>
<path d="M124 30.5C124 13.9315 137.431 0.5 154 0.5C170.569 0.5 184 13.9315 184 30.5V70.5C184 87.0685 170.569 100.5 154 100.5C137.431 100.5 124 87.0685 124 70.5V30.5Z" fill="#FFFFE3"/>
<path d="M145 54.5C145 46.2157 151.716 39.5 160 39.5C168.284 39.5 175 46.2157 175 54.5V74.5C175 82.7843 168.284 89.5 160 89.5C151.716 89.5 145 82.7843 145 74.5V54.5Z" fill="#171717"/>
<path d="M124 30.5C124 13.9315 137.431 0.5 154 0.5C170.569 0.5 184 13.9315 184 30.5V53.5H124V30.5Z" fill="#171717"/>
<path d="M106 121.5C106 122.052 106.448 122.5 107 122.5H127C127.552 122.5 128 122.052 128 121.5C128 120.948 127.552 120.5 127 120.5H107C106.448 120.5 106 120.948 106 121.5Z" fill="#FFFFE3"/>
<path d="M154 0C170.583 0 184.076 13.2351 184.49 29.7188C189.756 31.7598 194.697 34.0332 199.263 36.5127C220.322 47.9499 233.5 63.8332 233.5 81.5C233.5 99.1668 220.322 115.05 199.263 126.487C178.184 137.935 149.099 145 117 145C84.9008 145 55.8157 137.935 34.7373 126.487C13.6783 115.05 0.5 99.1668 0.5 81.5C0.5 63.8332 13.6783 47.9499 34.7373 36.5127C38.125 34.6729 41.7194 32.9461 45.5 31.3438V30.5C45.5 13.6553 59.1553 0 76 0C88.5416 0 99.3131 7.57072 103.999 18.3906C108.268 18.1327 112.606 18 117 18C120.058 18 123.089 18.0635 126.088 18.1895C130.82 7.4768 141.536 0 154 0Z" stroke="#FFFFE3"/>
</svg>
